<?xml version="1.0" encoding="UTF-8" standalone="no"?><!DOCTYPE svg PUBLIC "-//W3C//DTD SVG 1.1//EN" "http://www.w3.org/Graphics/SVG/1.1/DTD/svg11.dtd"><svg width="100%" height="100%" viewBox="0 0 260 260" version="1.1" xmlns="http://www.w3.org/2000/svg" xmlns:xlink="http://www.w3.org/1999/xlink" xml:space="preserve" xmlns:serif="http://www.serif.com/" style="fill-rule:evenodd;clip-rule:evenodd;stroke-linejoin:round;stroke-miterlimit:2;"><g><path d="M247.027,52.548c-36.301,-0.795 -72.166,16.167 -107.203,65.299c-7.405,12.454 -7.237,34.332 -3.871,42.747c4.88,5.385 10.266,42.41 29.956,45.103c20.116,4.826 48.348,-8.7 52.172,-28.442c2.034,-13.241 1.701,-24.757 -2.861,-35.342c7.666,-6.309 12.577,-21.731 15.819,-45.103c15.558,-14.081 19.354,-31.303 15.988,-44.262Zm-74.975,145.407c-0.631,-0.757 -1.914,-1.094 -3.04,-0.968c-1.125,0.127 -2.093,0.716 -2.093,1.81c1.01,2.524 4.039,1.514 5.133,-0.842Zm-24.318,-30.63c-0.199,7.924 0.712,14.853 3.069,20.229c2.356,5.376 6.158,9.198 11.74,10.906c1.713,-10.683 -6.058,-18.176 -14.809,-31.135Zm32.985,27.937c-1.848,-0.283 -3.466,-0.231 -4.633,0.245c-1.167,0.475 -1.884,1.374 -1.93,2.785c3.534,-0 4.544,-1.852 6.563,-3.03Zm4.797,-2.187c1.347,-0 2.44,0.678 2.44,1.514c-0,0.836 -1.093,1.515 -2.44,1.515c-1.347,-0 -2.777,-0.679 -2.777,-1.515c-0,-0.836 1.43,-1.514 2.777,-1.514Zm-46.534,-49.479c-0.058,3.745 1.142,8.358 4.544,13.8c1.322,2.645 3.939,6.555 8.247,12.117l8.751,14.642c3.52,4.857 7.148,8.199 10.939,9.256c0.513,-7.99 -2.069,-17.428 -9.088,-28.947c-7.237,-11.948 -15.315,-11.948 -23.393,-20.868Zm61.764,48.637c1.444,0.002 2.894,-0.267 3.931,-0.782c1.037,-0.514 1.662,-1.272 1.455,-2.247c-1.681,-1.426 -4.139,0.025 -5.386,3.029Zm-34.332,-29.181c0.842,8.616 3.787,16.627 8.078,21.515c4.292,4.889 9.93,6.656 16.157,2.786c1.851,-10.94 -11.276,-21.542 -24.235,-24.301Zm10.771,3.095c11.444,5.049 11.143,10.677 18.849,13.296c5.049,2.692 7.742,-0.842 5.217,-5.386c-4.039,-6.9 -13.506,-9.179 -24.066,-7.91Zm-40.054,-21.373c1.807,4.771 5.168,12.381 6.563,14.81c3.847,6.697 3.193,13.852 2.02,16.661c-2.45,-6.524 -4.905,-13.085 -8.415,-18.681l-0.168,-12.79Zm41.905,7.237c0.505,5.89 10.66,15.519 20.196,16.661c10.434,-0.505 8.919,-10.603 4.375,-12.791c-7.802,-4.11 -16.022,-5.188 -24.571,-3.87Zm-37.193,-13.632c7.069,16.661 28.61,25.749 42.074,24.571c-8.415,-7.742 -9.256,-18.176 -14.473,-21.542c-9.503,1.774 -18.628,0.076 -27.601,-3.029Zm66.308,6.732c-0.841,2.103 0.042,3.786 1.41,4.898c1.367,1.112 3.218,1.652 4.312,1.471c0.172,-4.376 -1.822,-6.404 -5.722,-6.369Zm-62.1,-7.574c1.009,2.861 19.353,4.544 25.075,1.852c4.208,12.958 26.591,13.127 31.977,10.097c-0.976,-6.801 -7.957,-10.518 -20.701,-11.276c-10.771,-0.336 -23.729,1.179 -36.351,-0.673Zm4.039,-2.356c-2.119,-0.341 -8.583,-1.346 -10.94,-2.188c-0.184,0.756 -0.135,1.486 0.169,2.188c2.356,1.683 9.088,1.683 10.771,0Zm12.285,1.262c5.208,-0.776 10.248,-1.183 15.104,-1.192c4.857,-0.01 9.532,0.378 14.011,1.192c-2.693,-3.955 -21.542,-7.152 -29.115,0Zm-24.571,-5.974c1.774,1.964 5.937,3.268 11.612,3.366c10.266,-0.337 17.84,-3.366 27.937,-3.703c10.603,0.505 14.137,4.208 21.037,4.208c6.294,-0.218 7.732,-3.2 7.91,-6.9c-0.505,-8.247 -12.622,-13.296 -25.076,-12.791c-9.256,-0.673 -16.734,2.379 -32.817,11.949l-10.603,3.871Zm76.574,-4.207c1.941,-0.47 2.984,0.102 3.366,1.682c0.382,1.58 -0.078,2.729 -2.019,3.198c-1.941,0.469 -3.658,0.402 -4.039,-1.178c-0.382,-1.58 0.751,-3.233 2.692,-3.702Zm-76.574,1.514c15.081,-27.679 32.788,-47.588 58.23,-44.598c0,2.188 -3.534,0.337 -5.968,3.198c-1.775,2.086 -3.105,5.228 -4.803,9.424c-3.197,10.266 -28.946,26.254 -47.459,31.976Zm72.367,-12.959c-1.346,2.693 -0.968,4.713 0.231,5.428c1.199,0.715 3.219,0.126 5.154,-2.398c-2.016,-0.715 -3.776,-1.772 -5.385,-3.03Zm-15.063,-15.651c8.175,0.464 14.687,4.274 15.231,8.583c0.6,4.752 -6.272,6.791 -15.231,7.068c-8.731,0.271 -14.711,-2.649 -14.894,-7.825c-0.171,-4.848 6.309,-8.313 14.894,-7.826Zm21.121,7.405c2.276,0 3.871,1.639 3.871,3.45c0,1.811 -2.1,2.945 -4.375,2.945c-2.276,0 -3.871,-0.881 -3.871,-2.692c-0,-1.812 2.1,-3.703 4.375,-3.703Zm2.693,-7.237c1.301,0 2.525,0.789 2.525,1.347c-0,0.557 -1.224,2.019 -2.525,2.019c-1.3,0 -2.524,-0.957 -2.524,-1.514c-0,-0.558 1.224,-1.852 2.524,-1.852Zm-16.493,-16.997c-4.799,-0.031 -6.917,2.52 -7.136,6.9c0.723,6.611 3.262,10.61 8.819,10.266c5.341,-0.261 8.742,-3.149 10.266,-8.583c-1.116,-5.822 -5.658,-8.106 -11.949,-8.583Zm18.008,3.87c-2.996,1.632 -4.542,3.704 -4.039,6.396c0.841,3.87 8.415,3.365 8.078,-1.179c-0.396,-3.024 -1.841,-4.63 -4.039,-5.217Zm-6.059,-7.741c0.505,3.871 3.45,5.89 6.374,5.974c2.925,0.084 5.828,-1.767 6.248,-5.638c-2.356,-3.702 -11.949,-3.87 -12.622,-0.336Zm19.859,-2.356c2.188,-0 2.524,0.997 2.524,2.019c0,1.022 -1.253,3.198 -2.692,3.198c-1.44,-0 -2.525,-2.176 -2.525,-3.198c0,-1.022 0.505,-2.019 2.693,-2.019Zm-36.688,3.534c-0.169,-1.767 2.075,-2.651 4.564,-2.84c2.489,-0.189 5.223,0.315 6.038,1.325c-2.861,0.842 -5.89,5.386 -10.602,1.515Zm-16.83,1.346c3.492,-0.953 6.689,-2.257 8.867,-3.702c2.177,-1.444 3.335,-3.03 2.746,-4.544c-6.386,2.27 -10.793,4.916 -11.613,8.246Zm24.235,-6.395c1.939,-2.407 4.459,-3.469 7.483,-3.366c1.644,-0.084 2.676,0.671 2.655,1.515c-0.041,1.683 -2.228,1.514 -3.238,2.188c-1.515,1.009 -4.597,0.805 -6.9,-0.337Zm32.986,0.168c-0.133,-1.092 0.131,-1.888 0.76,-2.413c0.628,-0.524 1.62,-0.777 2.942,-0.784c0.624,2.734 -0.505,3.894 -3.702,3.197Zm-22.384,-6.058c8.078,0.168 8.078,-1.347 12.791,-0c1.343,0.062 2.384,0.791 3.197,2.019c-1.111,2.236 -3.145,3.17 -6.058,2.861c-5.458,0.338 -8.184,-1.823 -9.93,-4.88Zm-11.949,2.861c0.406,-2.697 1.447,-5.151 3.482,-7.237c2.914,-1.683 5.438,0.673 4.26,3.198c-2.152,3.259 -4.775,4.375 -7.742,4.039Zm33.323,-5.386c1.857,0 4.039,-0.505 3.534,1.683c-0.921,3.99 -6.035,4.134 -7.068,0c-0.505,-2.019 1.676,-1.683 3.534,-1.683Zm-41.637,4.208c0.172,-1.901 1.265,-3.492 2.929,-4.713c2.524,-1.009 4.376,0.674 2.861,2.861c-1.637,1.268 -3.542,1.941 -5.79,1.852Zm22.283,-5.218c1.178,-3.534 2.019,-4.734 5.974,-4.88c4.544,-0.168 8.499,1.178 9.172,3.198c-0.336,2.019 -1.574,2.843 -4.207,3.029c-4.039,-0.505 -6.059,-1.178 -10.939,-1.347Zm16.324,-5.89c1.347,-1.262 3.24,-1.977 4.818,-1.956c1.578,0.021 2.84,0.778 2.924,2.461c-1.01,4.039 -5.722,2.188 -7.742,-0.505Zm-6.226,-0.673c0.137,-1.637 1.084,-2.842 3.87,-3.871c1.683,-0.336 2.767,1.01 1.683,2.356c-0.841,0.337 -1.683,0 -2.555,0.567c-0.868,0.564 -1.851,0.757 -2.998,0.948Z" style="fill:#ff57bb;"/><path d="M12.173,52.548c36.301,-0.795 72.166,16.167 107.203,65.299c7.405,12.454 7.237,34.332 3.871,42.747c-4.88,5.385 -10.266,42.41 -29.956,45.103c-20.116,4.826 -48.348,-8.7 -52.172,-28.442c-2.034,-13.241 -1.701,-24.757 2.861,-35.342c-7.666,-6.309 -12.577,-21.731 -15.819,-45.103c-15.558,-14.081 -19.354,-31.303 -15.988,-44.262Zm74.975,145.407c0.631,-0.757 1.914,-1.094 3.04,-0.968c1.125,0.127 2.093,0.716 2.093,1.81c-1.01,2.524 -4.039,1.514 -5.133,-0.842Zm24.318,-30.63c0.199,7.924 -0.712,14.853 -3.069,20.229c-2.356,5.376 -6.158,9.198 -11.74,10.906c-1.713,-10.683 6.058,-18.176 14.809,-31.135Zm-32.985,27.937c1.848,-0.283 3.466,-0.231 4.633,0.245c1.167,0.475 1.884,1.374 1.93,2.785c-3.534,-0 -4.544,-1.852 -6.563,-3.03Zm-4.797,-2.187c-1.347,-0 -2.44,0.678 -2.44,1.514c0,0.836 1.093,1.515 2.44,1.515c1.347,-0 2.777,-0.679 2.777,-1.515c0,-0.836 -1.43,-1.514 -2.777,-1.514Zm46.534,-49.479c0.058,3.745 -1.142,8.358 -4.544,13.8c-1.322,2.645 -3.939,6.555 -8.247,12.117l-8.751,14.642c-3.52,4.857 -7.148,8.199 -10.939,9.256c-0.513,-7.99 2.069,-17.428 9.088,-28.947c7.237,-11.948 15.315,-11.948 23.393,-20.868Zm-61.764,48.637c-1.444,0.002 -2.894,-0.267 -3.931,-0.782c-1.037,-0.514 -1.662,-1.272 -1.455,-2.247c1.681,-1.426 4.139,0.025 5.386,3.029Zm34.332,-29.181c-0.842,8.616 -3.787,16.627 -8.078,21.515c-4.292,4.889 -9.93,6.656 -16.157,2.786c-1.851,-10.94 11.276,-21.542 24.235,-24.301Zm-10.771,3.095c-11.444,5.049 -11.143,10.677 -18.849,13.296c-5.049,2.692 -7.742,-0.842 -5.217,-5.386c4.039,-6.9 13.506,-9.179 24.066,-7.91Zm40.054,-21.373c-1.807,4.771 -5.168,12.381 -6.563,14.81c-3.847,6.697 -3.193,13.852 -2.02,16.661c2.45,-6.524 4.905,-13.085 8.415,-18.681l0.168,-12.79Zm-41.905,7.237c-0.505,5.89 -10.66,15.519 -20.196,16.661c-10.434,-0.505 -8.919,-10.603 -4.375,-12.791c7.802,-4.11 16.022,-5.188 24.571,-3.87Zm37.193,-13.632c-7.069,16.661 -28.61,25.749 -42.074,24.571c8.415,-7.742 9.256,-18.176 14.473,-21.542c9.503,1.774 18.628,0.076 27.601,-3.029Zm-66.308,6.732c0.841,2.103 -0.042,3.786 -1.41,4.898c-1.367,1.112 -3.218,1.652 -4.312,1.471c-0.172,-4.376 1.822,-6.404 5.722,-6.369Zm62.1,-7.574c-1.009,2.861 -19.353,4.544 -25.075,1.852c-4.208,12.958 -26.591,13.127 -31.977,10.097c0.976,-6.801 7.957,-10.518 20.701,-11.276c10.771,-0.336 23.729,1.179 36.351,-0.673Zm-4.039,-2.356c2.119,-0.341 8.583,-1.346 10.94,-2.188c0.184,0.756 0.135,1.486 -0.169,2.188c-2.356,1.683 -9.088,1.683 -10.771,0Zm-12.285,1.262c-5.208,-0.776 -10.248,-1.183 -15.104,-1.192c-4.857,-0.01 -9.532,0.378 -14.011,1.192c2.693,-3.955 21.542,-7.152 29.115,0Zm24.571,-5.974c-1.774,1.964 -5.937,3.268 -11.612,3.366c-10.266,-0.337 -17.84,-3.366 -27.937,-3.703c-10.603,0.505 -14.137,4.208 -21.037,4.208c-6.294,-0.218 -7.732,-3.2 -7.91,-6.9c0.505,-8.247 12.622,-13.296 25.076,-12.791c9.256,-0.673 16.734,2.379 32.817,11.949l10.603,3.871Zm-76.574,-4.207c-1.941,-0.47 -2.984,0.102 -3.366,1.682c-0.382,1.58 0.078,2.729 2.019,3.198c1.941,0.469 3.658,0.402 4.039,-1.178c0.382,-1.58 -0.751,-3.233 -2.692,-3.702Zm76.574,1.514c-15.081,-27.679 -32.788,-47.588 -58.23,-44.598c-0,2.188 3.534,0.337 5.968,3.198c1.775,2.086 3.105,5.228 4.803,9.424c3.197,10.266 28.946,26.254 47.459,31.976Zm-72.367,-12.959c1.346,2.693 0.968,4.713 -0.231,5.428c-1.199,0.715 -3.219,0.126 -5.154,-2.398c2.016,-0.715 3.776,-1.772 5.385,-3.03Zm15.063,-15.651c-8.175,0.464 -14.687,4.274 -15.231,8.583c-0.6,4.752 6.272,6.791 15.231,7.068c8.731,0.271 14.711,-2.649 14.894,-7.825c0.171,-4.848 -6.309,-8.313 -14.894,-7.826Zm-21.121,7.405c-2.276,0 -3.871,1.639 -3.871,3.45c-0,1.811 2.1,2.945 4.375,2.945c2.276,0 3.871,-0.881 3.871,-2.692c0,-1.812 -2.1,-3.703 -4.375,-3.703Zm-2.693,-7.237c-1.301,0 -2.525,0.789 -2.525,1.347c0,0.557 1.224,2.019 2.525,2.019c1.3,0 2.524,-0.957 2.524,-1.514c0,-0.558 -1.224,-1.852 -2.524,-1.852Zm16.493,-16.997c4.799,-0.031 6.917,2.52 7.136,6.9c-0.723,6.611 -3.262,10.61 -8.819,10.266c-5.341,-0.261 -8.742,-3.149 -10.266,-8.583c1.116,-5.822 5.658,-8.106 11.949,-8.583Zm-18.008,3.87c2.996,1.632 4.542,3.704 4.039,6.396c-0.841,3.87 -8.415,3.365 -8.078,-1.179c0.396,-3.024 1.841,-4.63 4.039,-5.217Zm6.059,-7.741c-0.505,3.871 -3.45,5.89 -6.374,5.974c-2.925,0.084 -5.828,-1.767 -6.248,-5.638c2.356,-3.702 11.949,-3.87 12.622,-0.336Zm-19.859,-2.356c-2.188,-0 -2.524,0.997 -2.524,2.019c-0,1.022 1.253,3.198 2.692,3.198c1.44,-0 2.525,-2.176 2.525,-3.198c-0,-1.022 -0.505,-2.019 -2.693,-2.019Zm36.688,3.534c0.169,-1.767 -2.075,-2.651 -4.564,-2.84c-2.489,-0.189 -5.223,0.315 -6.038,1.325c2.861,0.842 5.89,5.386 10.602,1.515Zm16.83,1.346c-3.492,-0.953 -6.689,-2.257 -8.867,-3.702c-2.177,-1.444 -3.335,-3.03 -2.746,-4.544c6.386,2.27 10.793,4.916 11.613,8.246Zm-24.235,-6.395c-1.939,-2.407 -4.459,-3.469 -7.483,-3.366c-1.644,-0.084 -2.676,0.671 -2.655,1.515c0.041,1.683 2.228,1.514 3.238,2.188c1.515,1.009 4.597,0.805 6.9,-0.337Zm-32.986,0.168c0.133,-1.092 -0.131,-1.888 -0.76,-2.413c-0.628,-0.524 -1.62,-0.777 -2.942,-0.784c-0.624,2.734 0.505,3.894 3.702,3.197Zm22.384,-6.058c-8.078,0.168 -8.078,-1.347 -12.791,-0c-1.343,0.062 -2.384,0.791 -3.197,2.019c1.111,2.236 3.145,3.17 6.058,2.861c5.458,0.338 8.184,-1.823 9.93,-4.88Zm11.949,2.861c-0.406,-2.697 -1.447,-5.151 -3.482,-7.237c-2.914,-1.683 -5.438,0.673 -4.26,3.198c2.152,3.259 4.775,4.375 7.742,4.039Zm-33.323,-5.386c-1.857,0 -4.039,-0.505 -3.534,1.683c0.921,3.99 6.035,4.134 7.068,0c0.505,-2.019 -1.676,-1.683 -3.534,-1.683Zm41.637,4.208c-0.172,-1.901 -1.265,-3.492 -2.929,-4.713c-2.524,-1.009 -4.376,0.674 -2.861,2.861c1.637,1.268 3.542,1.941 5.79,1.852Zm-22.283,-5.218c-1.178,-3.534 -2.019,-4.734 -5.974,-4.88c-4.544,-0.168 -8.499,1.178 -9.172,3.198c0.336,2.019 1.574,2.843 4.207,3.029c4.039,-0.505 6.059,-1.178 10.939,-1.347Zm-16.324,-5.89c-1.347,-1.262 -3.24,-1.977 -4.818,-1.956c-1.578,0.021 -2.84,0.778 -2.924,2.461c1.01,4.039 5.722,2.188 7.742,-0.505Zm6.226,-0.673c-0.137,-1.637 -1.084,-2.842 -3.87,-3.871c-1.683,-0.336 -2.767,1.01 -1.683,2.356c0.841,0.337 1.683,0 2.555,0.567c0.868,0.564 1.851,0.757 2.998,0.948Z" style="fill:#ff57bb;"/></g><g><path d="M247.027,52.548c-36.301,-0.795 -72.166,16.167 -107.203,65.299c-7.405,12.454 -7.237,34.332 -3.871,42.747c4.88,5.385 10.266,42.41 29.956,45.103c20.116,4.826 48.348,-8.7 52.172,-28.442c2.034,-13.241 1.701,-24.757 -2.861,-35.342c7.666,-6.309 12.577,-21.731 15.819,-45.103c15.558,-14.081 19.354,-31.303 15.988,-44.262Zm-74.975,145.407c-0.631,-0.757 -1.914,-1.094 -3.04,-0.968c-1.125,0.127 -2.093,0.716 -2.093,1.81c1.01,2.524 4.039,1.514 5.133,-0.842Zm-24.318,-30.63c-0.199,7.924 0.712,14.853 3.069,20.229c2.356,5.376 6.158,9.198 11.74,10.906c1.713,-10.683 -6.058,-18.176 -14.809,-31.135Zm32.985,27.937c-1.848,-0.283 -3.466,-0.231 -4.633,0.245c-1.167,0.475 -1.884,1.374 -1.93,2.785c3.534,-0 4.544,-1.852 6.563,-3.03Zm4.797,-2.187c1.347,-0 2.44,0.678 2.44,1.514c-0,0.836 -1.093,1.515 -2.44,1.515c-1.347,-0 -2.777,-0.679 -2.777,-1.515c-0,-0.836 1.43,-1.514 2.777,-1.514Zm-46.534,-49.479c-0.058,3.745 1.142,8.358 4.544,13.8c1.322,2.645 3.939,6.555 8.247,12.117l8.751,14.642c3.52,4.857 7.148,8.199 10.939,9.256c0.513,-7.99 -2.069,-17.428 -9.088,-28.947c-7.237,-11.948 -15.315,-11.948 -23.393,-20.868Zm61.764,48.637c1.444,0.002 2.894,-0.267 3.931,-0.782c1.037,-0.514 1.662,-1.272 1.455,-2.247c-1.681,-1.426 -4.139,0.025 -5.386,3.029Zm-34.332,-29.181c0.842,8.616 3.787,16.627 8.078,21.515c4.292,4.889 9.93,6.656 16.157,2.786c1.851,-10.94 -11.276,-21.542 -24.235,-24.301Zm10.771,3.095c11.444,5.049 11.143,10.677 18.849,13.296c5.049,2.692 7.742,-0.842 5.217,-5.386c-4.039,-6.9 -13.506,-9.179 -24.066,-7.91Zm-40.054,-21.373c1.807,4.771 5.168,12.381 6.563,14.81c3.847,6.697 3.193,13.852 2.02,16.661c-2.45,-6.524 -4.905,-13.085 -8.415,-18.681l-0.168,-12.79Zm41.905,7.237c0.505,5.89 10.66,15.519 20.196,16.661c10.434,-0.505 8.919,-10.603 4.375,-12.791c-7.802,-4.11 -16.022,-5.188 -24.571,-3.87Zm-37.193,-13.632c7.069,16.661 28.61,25.749 42.074,24.571c-8.415,-7.742 -9.256,-18.176 -14.473,-21.542c-9.503,1.774 -18.628,0.076 -27.601,-3.029Zm66.308,6.732c-0.841,2.103 0.042,3.786 1.41,4.898c1.367,1.112 3.218,1.652 4.312,1.471c0.172,-4.376 -1.822,-6.404 -5.722,-6.369Zm-62.1,-7.574c1.009,2.861 19.353,4.544 25.075,1.852c4.208,12.958 26.591,13.127 31.977,10.097c-0.976,-6.801 -7.957,-10.518 -20.701,-11.276c-10.771,-0.336 -23.729,1.179 -36.351,-0.673Zm4.039,-2.356c-2.119,-0.341 -8.583,-1.346 -10.94,-2.188c-0.184,0.756 -0.135,1.486 0.169,2.188c2.356,1.683 9.088,1.683 10.771,0Zm12.285,1.262c5.208,-0.776 10.248,-1.183 15.104,-1.192c4.857,-0.01 9.532,0.378 14.011,1.192c-2.693,-3.955 -21.542,-7.152 -29.115,0Zm-24.571,-5.974c1.774,1.964 5.937,3.268 11.612,3.366c10.266,-0.337 17.84,-3.366 27.937,-3.703c10.603,0.505 14.137,4.208 21.037,4.208c6.294,-0.218 7.732,-3.2 7.91,-6.9c-0.505,-8.247 -12.622,-13.296 -25.076,-12.791c-9.256,-0.673 -16.734,2.379 -32.817,11.949l-10.603,3.871Zm76.574,-4.207c1.941,-0.47 2.984,0.102 3.366,1.682c0.382,1.58 -0.078,2.729 -2.019,3.198c-1.941,0.469 -3.658,0.402 -4.039,-1.178c-0.382,-1.58 0.751,-3.233 2.692,-3.702Zm-76.574,1.514c15.081,-27.679 32.788,-47.588 58.23,-44.598c0,2.188 -3.534,0.337 -5.968,3.198c-1.775,2.086 -3.105,5.228 -4.803,9.424c-3.197,10.266 -28.946,26.254 -47.459,31.976Zm72.367,-12.959c-1.346,2.693 -0.968,4.713 0.231,5.428c1.199,0.715 3.219,0.126 5.154,-2.398c-2.016,-0.715 -3.776,-1.772 -5.385,-3.03Zm-15.063,-15.651c8.175,0.464 14.687,4.274 15.231,8.583c0.6,4.752 -6.272,6.791 -15.231,7.068c-8.731,0.271 -14.711,-2.649 -14.894,-7.825c-0.171,-4.848 6.309,-8.313 14.894,-7.826Zm21.121,7.405c2.276,0 3.871,1.639 3.871,3.45c0,1.811 -2.1,2.945 -4.375,2.945c-2.276,0 -3.871,-0.881 -3.871,-2.692c-0,-1.812 2.1,-3.703 4.375,-3.703Zm2.693,-7.237c1.301,0 2.525,0.789 2.525,1.347c-0,0.557 -1.224,2.019 -2.525,2.019c-1.3,0 -2.524,-0.957 -2.524,-1.514c-0,-0.558 1.224,-1.852 2.524,-1.852Zm-16.493,-16.997c-4.799,-0.031 -6.917,2.52 -7.136,6.9c0.723,6.611 3.262,10.61 8.819,10.266c5.341,-0.261 8.742,-3.149 10.266,-8.583c-1.116,-5.822 -5.658,-8.106 -11.949,-8.583Zm18.008,3.87c-2.996,1.632 -4.542,3.704 -4.039,6.396c0.841,3.87 8.415,3.365 8.078,-1.179c-0.396,-3.024 -1.841,-4.63 -4.039,-5.217Zm-6.059,-7.741c0.505,3.871 3.45,5.89 6.374,5.974c2.925,0.084 5.828,-1.767 6.248,-5.638c-2.356,-3.702 -11.949,-3.87 -12.622,-0.336Zm19.859,-2.356c2.188,-0 2.524,0.997 2.524,2.019c0,1.022 -1.253,3.198 -2.692,3.198c-1.44,-0 -2.525,-2.176 -2.525,-3.198c0,-1.022 0.505,-2.019 2.693,-2.019Zm-36.688,3.534c-0.169,-1.767 2.075,-2.651 4.564,-2.84c2.489,-0.189 5.223,0.315 6.038,1.325c-2.861,0.842 -5.89,5.386 -10.602,1.515Zm-16.83,1.346c3.492,-0.953 6.689,-2.257 8.867,-3.702c2.177,-1.444 3.335,-3.03 2.746,-4.544c-6.386,2.27 -10.793,4.916 -11.613,8.246Zm24.235,-6.395c1.939,-2.407 4.459,-3.469 7.483,-3.366c1.644,-0.084 2.676,0.671 2.655,1.515c-0.041,1.683 -2.228,1.514 -3.238,2.188c-1.515,1.009 -4.597,0.805 -6.9,-0.337Zm32.986,0.168c-0.133,-1.092 0.131,-1.888 0.76,-2.413c0.628,-0.524 1.62,-0.777 2.942,-0.784c0.624,2.734 -0.505,3.894 -3.702,3.197Zm-22.384,-6.058c8.078,0.168 8.078,-1.347 12.791,-0c1.343,0.062 2.384,0.791 3.197,2.019c-1.111,2.236 -3.145,3.17 -6.058,2.861c-5.458,0.338 -8.184,-1.823 -9.93,-4.88Zm-11.949,2.861c0.406,-2.697 1.447,-5.151 3.482,-7.237c2.914,-1.683 5.438,0.673 4.26,3.198c-2.152,3.259 -4.775,4.375 -7.742,4.039Zm33.323,-5.386c1.857,0 4.039,-0.505 3.534,1.683c-0.921,3.99 -6.035,4.134 -7.068,0c-0.505,-2.019 1.676,-1.683 3.534,-1.683Zm-41.637,4.208c0.172,-1.901 1.265,-3.492 2.929,-4.713c2.524,-1.009 4.376,0.674 2.861,2.861c-1.637,1.268 -3.542,1.941 -5.79,1.852Zm22.283,-5.218c1.178,-3.534 2.019,-4.734 5.974,-4.88c4.544,-0.168 8.499,1.178 9.172,3.198c-0.336,2.019 -1.574,2.843 -4.207,3.029c-4.039,-0.505 -6.059,-1.178 -10.939,-1.347Zm16.324,-5.89c1.347,-1.262 3.24,-1.977 4.818,-1.956c1.578,0.021 2.84,0.778 2.924,2.461c-1.01,4.039 -5.722,2.188 -7.742,-0.505Zm-6.226,-0.673c0.137,-1.637 1.084,-2.842 3.87,-3.871c1.683,-0.336 2.767,1.01 1.683,2.356c-0.841,0.337 -1.683,0 -2.555,0.567c-0.868,0.564 -1.851,0.757 -2.998,0.948Z" style="fill:#fff;"/><path d="M12.173,52.548c36.301,-0.795 72.166,16.167 107.203,65.299c7.405,12.454 7.237,34.332 3.871,42.747c-4.88,5.385 -10.266,42.41 -29.956,45.103c-20.116,4.826 -48.348,-8.7 -52.172,-28.442c-2.034,-13.241 -1.701,-24.757 2.861,-35.342c-7.666,-6.309 -12.577,-21.731 -15.819,-45.103c-15.558,-14.081 -19.354,-31.303 -15.988,-44.262Zm74.975,145.407c0.631,-0.757 1.914,-1.094 3.04,-0.968c1.125,0.127 2.093,0.716 2.093,1.81c-1.01,2.524 -4.039,1.514 -5.133,-0.842Zm24.318,-30.63c0.199,7.924 -0.712,14.853 -3.069,20.229c-2.356,5.376 -6.158,9.198 -11.74,10.906c-1.713,-10.683 6.058,-18.176 14.809,-31.135Zm-32.985,27.937c1.848,-0.283 3.466,-0.231 4.633,0.245c1.167,0.475 1.884,1.374 1.93,2.785c-3.534,-0 -4.544,-1.852 -6.563,-3.03Zm-4.797,-2.187c-1.347,-0 -2.44,0.678 -2.44,1.514c0,0.836 1.093,1.515 2.44,1.515c1.347,-0 2.777,-0.679 2.777,-1.515c0,-0.836 -1.43,-1.514 -2.777,-1.514Zm46.534,-49.479c0.058,3.745 -1.142,8.358 -4.544,13.8c-1.322,2.645 -3.939,6.555 -8.247,12.117l-8.751,14.642c-3.52,4.857 -7.148,8.199 -10.939,9.256c-0.513,-7.99 2.069,-17.428 9.088,-28.947c7.237,-11.948 15.315,-11.948 23.393,-20.868Zm-61.764,48.637c-1.444,0.002 -2.894,-0.267 -3.931,-0.782c-1.037,-0.514 -1.662,-1.272 -1.455,-2.247c1.681,-1.426 4.139,0.025 5.386,3.029Zm34.332,-29.181c-0.842,8.616 -3.787,16.627 -8.078,21.515c-4.292,4.889 -9.93,6.656 -16.157,2.786c-1.851,-10.94 11.276,-21.542 24.235,-24.301Zm-10.771,3.095c-11.444,5.049 -11.143,10.677 -18.849,13.296c-5.049,2.692 -7.742,-0.842 -5.217,-5.386c4.039,-6.9 13.506,-9.179 24.066,-7.91Zm40.054,-21.373c-1.807,4.771 -5.168,12.381 -6.563,14.81c-3.847,6.697 -3.193,13.852 -2.02,16.661c2.45,-6.524 4.905,-13.085 8.415,-18.681l0.168,-12.79Zm-41.905,7.237c-0.505,5.89 -10.66,15.519 -20.196,16.661c-10.434,-0.505 -8.919,-10.603 -4.375,-12.791c7.802,-4.11 16.022,-5.188 24.571,-3.87Zm37.193,-13.632c-7.069,16.661 -28.61,25.749 -42.074,24.571c8.415,-7.742 9.256,-18.176 14.473,-21.542c9.503,1.774 18.628,0.076 27.601,-3.029Zm-66.308,6.732c0.841,2.103 -0.042,3.786 -1.41,4.898c-1.367,1.112 -3.218,1.652 -4.312,1.471c-0.172,-4.376 1.822,-6.404 5.722,-6.369Zm62.1,-7.574c-1.009,2.861 -19.353,4.544 -25.075,1.852c-4.208,12.958 -26.591,13.127 -31.977,10.097c0.976,-6.801 7.957,-10.518 20.701,-11.276c10.771,-0.336 23.729,1.179 36.351,-0.673Zm-4.039,-2.356c2.119,-0.341 8.583,-1.346 10.94,-2.188c0.184,0.756 0.135,1.486 -0.169,2.188c-2.356,1.683 -9.088,1.683 -10.771,0Zm-12.285,1.262c-5.208,-0.776 -10.248,-1.183 -15.104,-1.192c-4.857,-0.01 -9.532,0.378 -14.011,1.192c2.693,-3.955 21.542,-7.152 29.115,0Zm24.571,-5.974c-1.774,1.964 -5.937,3.268 -11.612,3.366c-10.266,-0.337 -17.84,-3.366 -27.937,-3.703c-10.603,0.505 -14.137,4.208 -21.037,4.208c-6.294,-0.218 -7.732,-3.2 -7.91,-6.9c0.505,-8.247 12.622,-13.296 25.076,-12.791c9.256,-0.673 16.734,2.379 32.817,11.949l10.603,3.871Zm-76.574,-4.207c-1.941,-0.47 -2.984,0.102 -3.366,1.682c-0.382,1.58 0.078,2.729 2.019,3.198c1.941,0.469 3.658,0.402 4.039,-1.178c0.382,-1.58 -0.751,-3.233 -2.692,-3.702Zm76.574,1.514c-15.081,-27.679 -32.788,-47.588 -58.23,-44.598c-0,2.188 3.534,0.337 5.968,3.198c1.775,2.086 3.105,5.228 4.803,9.424c3.197,10.266 28.946,26.254 47.459,31.976Zm-72.367,-12.959c1.346,2.693 0.968,4.713 -0.231,5.428c-1.199,0.715 -3.219,0.126 -5.154,-2.398c2.016,-0.715 3.776,-1.772 5.385,-3.03Zm15.063,-15.651c-8.175,0.464 -14.687,4.274 -15.231,8.583c-0.6,4.752 6.272,6.791 15.231,7.068c8.731,0.271 14.711,-2.649 14.894,-7.825c0.171,-4.848 -6.309,-8.313 -14.894,-7.826Zm-21.121,7.405c-2.276,0 -3.871,1.639 -3.871,3.45c-0,1.811 2.1,2.945 4.375,2.945c2.276,0 3.871,-0.881 3.871,-2.692c0,-1.812 -2.1,-3.703 -4.375,-3.703Zm-2.693,-7.237c-1.301,0 -2.525,0.789 -2.525,1.347c0,0.557 1.224,2.019 2.525,2.019c1.3,0 2.524,-0.957 2.524,-1.514c0,-0.558 -1.224,-1.852 -2.524,-1.852Zm16.493,-16.997c4.799,-0.031 6.917,2.52 7.136,6.9c-0.723,6.611 -3.262,10.61 -8.819,10.266c-5.341,-0.261 -8.742,-3.149 -10.266,-8.583c1.116,-5.822 5.658,-8.106 11.949,-8.583Zm-18.008,3.87c2.996,1.632 4.542,3.704 4.039,6.396c-0.841,3.87 -8.415,3.365 -8.078,-1.179c0.396,-3.024 1.841,-4.63 4.039,-5.217Zm6.059,-7.741c-0.505,3.871 -3.45,5.89 -6.374,5.974c-2.925,0.084 -5.828,-1.767 -6.248,-5.638c2.356,-3.702 11.949,-3.87 12.622,-0.336Zm-19.859,-2.356c-2.188,-0 -2.524,0.997 -2.524,2.019c-0,1.022 1.253,3.198 2.692,3.198c1.44,-0 2.525,-2.176 2.525,-3.198c-0,-1.022 -0.505,-2.019 -2.693,-2.019Zm36.688,3.534c0.169,-1.767 -2.075,-2.651 -4.564,-2.84c-2.489,-0.189 -5.223,0.315 -6.038,1.325c2.861,0.842 5.89,5.386 10.602,1.515Zm16.83,1.346c-3.492,-0.953 -6.689,-2.257 -8.867,-3.702c-2.177,-1.444 -3.335,-3.03 -2.746,-4.544c6.386,2.27 10.793,4.916 11.613,8.246Zm-24.235,-6.395c-1.939,-2.407 -4.459,-3.469 -7.483,-3.366c-1.644,-0.084 -2.676,0.671 -2.655,1.515c0.041,1.683 2.228,1.514 3.238,2.188c1.515,1.009 4.597,0.805 6.9,-0.337Zm-32.986,0.168c0.133,-1.092 -0.131,-1.888 -0.76,-2.413c-0.628,-0.524 -1.62,-0.777 -2.942,-0.784c-0.624,2.734 0.505,3.894 3.702,3.197Zm22.384,-6.058c-8.078,0.168 -8.078,-1.347 -12.791,-0c-1.343,0.062 -2.384,0.791 -3.197,2.019c1.111,2.236 3.145,3.17 6.058,2.861c5.458,0.338 8.184,-1.823 9.93,-4.88Zm11.949,2.861c-0.406,-2.697 -1.447,-5.151 -3.482,-7.237c-2.914,-1.683 -5.438,0.673 -4.26,3.198c2.152,3.259 4.775,4.375 7.742,4.039Zm-33.323,-5.386c-1.857,0 -4.039,-0.505 -3.534,1.683c0.921,3.99 6.035,4.134 7.068,0c0.505,-2.019 -1.676,-1.683 -3.534,-1.683Zm41.637,4.208c-0.172,-1.901 -1.265,-3.492 -2.929,-4.713c-2.524,-1.009 -4.376,0.674 -2.861,2.861c1.637,1.268 3.542,1.941 5.79,1.852Zm-22.283,-5.218c-1.178,-3.534 -2.019,-4.734 -5.974,-4.88c-4.544,-0.168 -8.499,1.178 -9.172,3.198c0.336,2.019 1.574,2.843 4.207,3.029c4.039,-0.505 6.059,-1.178 10.939,-1.347Zm-16.324,-5.89c-1.347,-1.262 -3.24,-1.977 -4.818,-1.956c-1.578,0.021 -2.84,0.778 -2.924,2.461c1.01,4.039 5.722,2.188 7.742,-0.505Zm6.226,-0.673c-0.137,-1.637 -1.084,-2.842 -3.87,-3.871c-1.683,-0.336 -2.767,1.01 -1.683,2.356c0.841,0.337 1.683,0 2.555,0.567c0.868,0.564 1.851,0.757 2.998,0.948Z" style="fill:#fff;"/></g></svg>